<?xml version="1.0" encoding="UTF-8" standalone="no"?>
<svg
   xmlns:dc="http://purl.org/dc/elements/1.1/"
   xmlns:cc="http://creativecommons.org/ns#"
   xmlns:rdf="http://www.w3.org/1999/02/22-rdf-syntax-ns#"
   xmlns:svg="http://www.w3.org/2000/svg"
   xmlns="http://www.w3.org/2000/svg"
   xmlns:sodipodi="http://sodipodi.sourceforge.net/DTD/sodipodi-0.dtd"
   xmlns:inkscape="http://www.inkscape.org/namespaces/inkscape"
   width="35"
   height="69.814598"
   viewBox="0 0 28 55.851678"
   version="1.1"
   id="svg2"
   inkscape:version="0.91pre1 r13432"
   sodipodi:docname="Tel-O-Fun.svg">
  <metadata
     id="metadata92">
    <rdf:RDF>
      <cc:Work
         rdf:about="">
        <dc:format>image/svg+xml</dc:format>
        <dc:type
           rdf:resource="http://purl.org/dc/dcmitype/StillImage" />
        <dc:title></dc:title>
      </cc:Work>
    </rdf:RDF>
  </metadata>
  <defs
     id="defs90" />
  <sodipodi:namedview
     pagecolor="#ffffff"
     bordercolor="#666666"
     borderopacity="1"
     objecttolerance="10"
     gridtolerance="10"
     guidetolerance="10"
     inkscape:pageopacity="0"
     inkscape:pageshadow="2"
     inkscape:window-width="1276"
     inkscape:window-height="761"
     id="namedview88"
     showgrid="false"
     fit-margin-top="0"
     fit-margin-left="0"
     fit-margin-right="0"
     fit-margin-bottom="0"
     inkscape:zoom="7.4912697"
     inkscape:cx="17.500001"
     inkscape:cy="34.9073"
     inkscape:window-x="0"
     inkscape:window-y="37"
     inkscape:window-maximized="0"
     inkscape:current-layer="svg2" />
  <g
     id="g4221"
     transform="matrix(0.07039421,0,0,0.07039421,-77.123193,-1.9647024)">
    <path
       id="path4"
       d="m 1384,37.84 c 12.74,-2.75 25.36,-6.04 37.81,-9.93 3.88,11.29 7.75,22.59 11.6,33.9 -19.07,6.4 -38.71,10.94 -58.51,14.43 -91.72,17.37 -187.16,14.91 -277.81,-7.45 2.79,-11.63 5.6,-23.26 8.41,-34.89 90.96,22.36 186.91,23.25 278.5,3.94 z"
       inkscape:connector-curvature="0"
       style="opacity:1;fill:#71b85d" />
    <path
       id="path8"
       d="m 1237.34,110.69 c 17.09,-0.37 34.18,-0.6 51.26,-1.15 1.83,75.18 2.98,150.39 4.57,225.58 -10.78,0.41 -21.56,0.86 -32.34,1.24 -7.87,-75.22 -15.64,-150.45 -23.49,-225.67 z"
       inkscape:connector-curvature="0"
       style="opacity:1;fill:#f17f3f" />
    <path
       id="path22"
       d="m 1321.72,235.48 c 38.57,-0.77 77.14,-1.44 115.71,-2.19 -16.55,6.38 -29.9,19.06 -39.55,33.71 -13.86,20.1 -20.06,44.74 -19.9,68.98 -12.62,0.13 -25.25,0.51 -37.87,0.59 -0.37,-12.05 0.95,-24.11 3.48,-35.88 2.26,-9.99 5.18,-20.02 10.89,-28.64 -10.77,0.32 -21.53,0.75 -32.3,1.06 -0.2,-12.55 -0.24,-25.09 -0.46,-37.63 z"
       inkscape:connector-curvature="0"
       style="opacity:1;fill:#ec4a42" />
    <path
       id="path52"
       d="m 1276.46,370.65 c 10.18,-1.72 20.84,1.5 28.74,8.05 10.12,8.41 17.01,20 22.25,31.92 7.74,17.63 12.94,36.28 16.83,55.12 9.19,44.11 12.04,89.29 12.12,134.27 -0.33,49.85 -4.23,100.03 -16.79,148.41 -3.6,13.09 -7.96,26.03 -13.84,38.28 -5.06,10.55 -11.86,20.61 -21.39,27.61 -7.94,5.9 -18.33,8.36 -28.05,6.29 -11.79,-2.72 -21.15,-11.43 -27.83,-21.16 -9.58,-14.14 -15.43,-30.4 -20.33,-46.65 -12.52,-43.45 -17.1,-88.75 -18.71,-133.81 -1.11,-45.74 1.03,-91.68 8.33,-136.89 2.98,-18.97 7.5,-37.69 13.43,-55.95 5.19,-14.9 11.5,-29.91 22.29,-41.69 6.11,-6.62 13.87,-12.32 22.95,-13.8 m -1.79,79.99 c -10.49,24.82 -14.81,51.68 -18.22,78.25 -5.71,49.13 -6.51,98.98 -0.37,148.11 2.55,21.31 6.28,42.68 13.97,62.8 2.57,6.36 5.43,12.96 10.68,17.61 6.63,-6.36 9.71,-15.27 13.07,-23.59 9.63,-26.3 13.52,-54.25 16.7,-81.95 2.92,-24.19 3.31,-48.6 3.22,-72.95 -0.08,-23.37 -1.56,-46.75 -4.71,-69.91 -2.73,-19.55 -6.29,-39.16 -13.39,-57.64 -2.6,-6.23 -5.4,-12.68 -10.46,-17.31 -4.81,4.57 -7.95,10.53 -10.49,16.58 z"
       inkscape:connector-curvature="0"
       style="opacity:1;fill:#00b3dd" />
    <path
       id="path58"
       d="m 1363.17,406.87 c 9.79,-3.62 20.8,-4.5 30.68,-0.66 12.89,4.55 22.85,14.87 29.7,26.42 9.33,15.89 14.67,33.74 18.56,51.65 -7.72,-0.27 -15.43,-0.98 -23.15,-1.12 -5.37,0.58 -10.61,1.94 -15.93,2.81 -1.74,-18.18 -6.76,-36.22 -16.17,-51.96 -5.88,-10.65 -15.71,-18.18 -23.69,-27.14 z"
       inkscape:connector-curvature="0"
       style="opacity:1;fill:#0075b6" />
    <path
       id="path84"
       d="m 1095.59,519.2 c 6.63,-8.67 13.27,-17.32 19.9,-25.99 14.55,12.93 33.18,21.2 52.48,23.61 6.62,1.08 13.25,2.14 19.87,3.23 -1.87,14.81 -3.64,29.63 -5.53,44.44 -18.19,-0.98 -35.9,-6.92 -51.49,-16.23 -13.45,-7.45 -23.63,-19.22 -35.23,-29.06 z"
       inkscape:connector-curvature="0"
       style="opacity:1;fill:#009f56" />
    <path
       id="path86"
       d="m 1377.58,522.15 c 21.52,-9.13 45.62,-10.13 68.52,-6.9 16.15,2.49 32.23,6.25 47.25,12.83 -2.43,10.93 -4.84,21.86 -7.27,32.79 -10.08,-1.2 -20.16,-2.46 -30.23,-3.67 -25.15,-1.29 -50.54,2.45 -74.28,10.87 -1.32,-15.31 -2.67,-30.61 -3.99,-45.92 z"
       inkscape:connector-curvature="0"
       style="opacity:1;fill:#009f56" />
  </g>
</svg>
